<?xml version="1.0" encoding="utf-8" ?>
<svg xmlns="http://www.w3.org/2000/svg" xmlns:xlink="http://www.w3.org/1999/xlink" width="1024" height="1024">
	<path class="background-logo" fill="#C7ADFF" d="M-0 -0L1024 0L1024 1024L-0 1024L0 -0Z"/>
	<path fill="#AC8BEE" d="M91.9002 559.075C94.1 560.119 94.8299 560.858 95.9344 563L96.3912 563.867L96.6608 564.428L97.8346 567.605C96.0836 567.798 93.9417 566.562 92.4878 565.657C91.0839 564.783 90.6163 563.867 90.2664 562.25C90.6376 560.816 90.8007 560.146 91.9002 559.075Z"/>
	<path fill="#916DD5" d="M712.111 852.254L716.089 852.75L716.402 853.298C711.717 854.646 707.773 855.888 705.354 860.5L703.829 863.833L703.375 863.751L702.661 861.968L704.966 856.503C706.493 853.787 709.347 853.084 712.111 852.254Z"/>
	<path fill="#7151A9" d="M349.426 163.799C351.099 163.706 353.144 163.336 354.75 163.805C353.285 164.917 351.003 165.153 349.25 165.719C347.75 166.203 345.956 166.8 344.75 167.853C341.777 170.448 341.56 178.413 340.565 182.139C339.73 179.246 338.822 176.442 338.694 173.412L339.051 173.155L340.32 172.821L341.255 170.659C343.315 166.238 345.048 165.397 349.426 163.799Z"/>
	<path fill="#AC8BEE" d="M691.541 852.422C694.545 852.649 696.754 852.902 698.869 855.25C700.649 857.226 701.664 859.548 702.661 861.968L703.375 863.751L703.829 863.833L702.492 869.533L702 865.75C701.479 861.78 698.343 858.254 695.062 856.054C693.385 854.93 691.282 854.176 689.848 852.772L691.541 852.422Z"/>
	<path fill="#AC8BEE" d="M100.216 570.987L103.418 563.201C104.934 560.245 106.616 560.023 109.557 559.117L110.25 559.894C108.06 565.508 106.198 567.797 101.271 571.261L100.216 570.987Z"/>
	<path fill="#AC8BEE" d="M673.822 177.415C674.911 180.056 675.472 182.673 676.051 185.459C674.762 187.107 673.149 188.49 671.33 189.531L665.468 183.585L665.606 183.217L668.75 183.013C671.265 182.476 672.743 179.452 673.822 177.415Z"/>
	<path fill="#AC8BEE" d="M337.307 848.569C338.002 850.111 338.615 850.787 338.25 852.47L330.871 860.571L328.142 857.15C327.101 856.02 324.702 853.928 324.25 852.509C323.766 850.99 324.137 850.348 324.657 848.93C326.929 851.057 328.405 853.376 330.027 856.002C332.037 855.393 335.735 850.287 337.307 848.569Z"/>
	<path fill="#EBE0FF" d="M665.606 183.217C665.051 182.345 665.303 182.584 664.622 182.008C663.103 180.723 661.91 179.492 660.67 177.932C663.396 175.491 665.358 173.342 667.286 170.245C669.391 172.753 672.061 174.668 673.822 177.415C672.743 179.452 671.265 182.476 668.75 183.013L665.606 183.217Z"/>
	<path fill="#EBE0FF" d="M324.657 848.93L324.478 848.45L330.922 839.936L337.307 848.569C335.735 850.287 332.037 855.393 330.027 856.002C328.405 853.376 326.929 851.057 324.657 848.93Z"/>
	<defs>
		<linearGradient id="gradient_0" gradientUnits="userSpaceOnUse" x1="919.35028" y1="541.72876" x2="926.22968" y2="545.81873">
			<stop offset="0" stop-color="#9377D9"/>
			<stop offset="1" stop-color="#A599E7"/>
		</linearGradient>
	</defs>
	<path fill="url(#gradient_0)" d="M930.091 538.622C931.119 539.205 932.035 539.751 932.957 540.5L932.654 541.249L932.247 541.357L932.22 541.832C932.142 543.042 932.063 543.937 931.527 545.053C928.063 547.973 923.3 549.597 919.152 551.305C917.587 551.949 915.929 553.02 914.206 552.956C915.397 549.499 916.258 546.024 917.895 542.735C921.514 540.736 926.136 539.943 930.091 538.622Z"/>
	<path fill="#EBE0FF" d="M691.541 852.422C692.129 851.555 692.632 851.247 693.5 850.726C697.987 848.033 700.308 843.717 701.45 838.754L702.425 832.688C704.691 840.683 704.977 846.413 712.405 851.521L712.111 852.254C709.347 853.084 706.493 853.787 704.966 856.503L702.661 861.968C701.664 859.548 700.649 857.226 698.869 855.25C696.754 852.902 694.545 852.649 691.541 852.422Z"/>
	<path fill="#EBE0FF" d="M339.051 173.155C338.855 172.267 338.612 171.6 338.167 170.794C336.85 168.409 334.81 165.509 332.082 164.734L328.779 163.757C336.609 159.128 337.18 152.682 339.379 144.649C340.224 147.937 340.628 151.518 341.942 154.657C343.292 157.88 344.924 161.236 348.348 162.544C349.063 162.817 349.057 163.149 349.426 163.799C345.048 165.397 343.315 166.238 341.255 170.659L340.32 172.821L339.051 173.155Z"/>
	<path fill="#AC8BEE" d="M786.518 180.751L787.36 180.736C790.582 180.637 793.84 179.514 797.109 179.258C804.414 178.687 811.985 179.636 819.25 180.399C812.384 181.468 805.846 182.633 799.806 186.302L799.168 186.685C790.183 192.16 786.267 202.342 783.941 212.161L781.824 221.605C781.449 215.753 782.178 209.49 781.187 203.75L781.046 202.903C780.848 201.752 780.671 200.785 780.215 199.707C779.765 198.644 779.813 197.629 779.8 196.492C780.973 190.703 782.029 184.95 786.518 180.751Z"/>
	<path fill="#EBE0FF" d="M89.3714 558.116L81.25 555.267C82.5646 554.609 84.0604 554.201 85.4441 553.689C88.3738 552.606 92.4979 551.205 94.75 548.991C97.5604 546.228 99.0619 540.208 100.759 536.496C101.838 540.111 103.784 544.128 104.49 547.736L104.636 548.566C105.444 549.336 105.104 549.17 106.021 549.531C109.216 550.793 112.02 552.432 115.083 553.953C116.452 554.633 118.09 555.099 119.095 556.25L117.227 556.545C116.315 556.967 115.481 557.37 114.505 557.631L109.557 559.117C106.616 560.023 104.934 560.245 103.418 563.201L100.216 570.987L99.8348 571.752C99.1615 571.448 98.2344 568.491 97.8346 567.605L96.6608 564.428L96.3912 563.867L95.9344 563C94.8299 560.858 94.1 560.119 91.9002 559.075L89.3714 558.116Z"/>
	<path fill="#EBE0FF" d="M913.193 556.144C911.027 553.396 909.775 548.738 908.657 545.42C908.515 544.999 907.9 542.608 907.652 542.402C906.982 541.845 905.548 541.612 904.711 541.383C901.619 540.536 896.302 540.017 893.786 538.107C892.943 537.467 891.933 537.172 890.946 536.804L893.889 535.75C897.205 534.519 903.331 532.581 906.017 530.329C906.733 529.729 907.631 527.503 908.034 526.636L913.092 514.426L919.078 531.487C923.936 532.413 929.075 535.232 933.581 537.315C932.47 537.861 931.26 538.215 930.091 538.622C926.136 539.943 921.514 540.736 917.895 542.735C916.258 546.024 915.397 549.499 914.206 552.956L913.193 556.144Z"/>
	<path class="star" fill="#EBE0FF" d="M779.8 196.492C779.061 202.09 778.195 207.895 776.578 213.306C775.688 210.431 775.877 206.595 775.568 203.552C774.973 197.706 772.79 187.471 768.874 183.014C762.543 175.807 753.686 175.121 744.696 174.733C750.369 173.214 758.161 172.435 762.998 168.942C774.867 160.374 774.636 137.679 776.673 124.5C778.619 133.909 779.198 143.602 781.336 152.965C782.124 156.416 782.94 160.364 784.924 163.347C789.93 170.878 797.523 172.958 805.835 174.617C798.443 175.404 792.485 175.725 786.518 180.751C782.029 184.95 780.973 190.703 779.8 196.492Z"/>
	<path fill="#EBE0FF" d="M206.804 457.521C206.177 456.625 204.722 455.759 203.857 454.992L198.898 450.195L163.289 415.663L121.743 373.501L75.988 328.755L256.931 329.065C256.584 329.997 256.101 330.993 255.924 331.968L255.41 332.313C253.459 333.266 249.714 332.786 247.508 332.807L224.609 332.955L85.9444 332.984L206.901 452.898C207.607 454.699 207.163 455.647 206.804 457.521Z"/>
	<defs>
		<linearGradient id="gradient_1" gradientUnits="userSpaceOnUse" x1="184.29848" y1="453.64227" x2="168.85477" y2="323.87726">
			<stop offset="0" stop-color="#553794"/>
			<stop offset="1" stop-color="#885ACA"/>
		</linearGradient>
	</defs>
	<path fill="url(#gradient_1)" d="M206.901 452.898L85.9444 332.984L224.609 332.955L247.508 332.807C249.714 332.786 253.459 333.266 255.41 332.313L255.924 331.968C255.693 332.764 255.731 333.014 255.129 333.588C253.033 335.591 250.779 339.175 249.403 341.754L232.595 372.074C231.93 372.221 231.286 372.355 230.639 372.571L231.58 373.25C230.392 378.079 227.04 383.418 225.025 388.04L219.902 402.261C216.892 410.583 214.522 419.106 212.564 427.734L209.181 443C208.543 446.261 208.409 449.925 206.901 452.898Z"/>
	<path fill="#DAC7FF" d="M206.632 387.394L225.025 388.04L219.902 402.261L206.632 387.394Z"/>
	<path fill="#EBE0FF" d="M206.632 387.394L192.982 372.539L230.639 372.571L231.58 373.25C230.392 378.079 227.04 383.418 225.025 388.04L206.632 387.394Z"/>
	<defs>
		<linearGradient id="gradient_2" gradientUnits="userSpaceOnUse" x1="518.05432" y1="931.89594" x2="507.4679" y2="315.93564">
			<stop offset="0" stop-color="#04003B"/>
			<stop offset="1" stop-color="#6A58A1"/>
		</linearGradient>
	</defs>
	<path fill="url(#gradient_2)" d="M301.592 278.008C301.678 274.183 306.33 270.789 309.034 268.203C319.457 258.234 331.889 249.676 344.035 241.956C366.949 227.393 391.41 214.811 417.143 205.994C426.591 202.756 436.027 199.893 445.75 197.586L452.888 196.197C453.172 196.151 455.05 195.92 455.148 195.841C455.487 195.57 456.443 192.432 456.671 191.831L462.672 175.681C473.368 146.994 485.71 120.448 504.032 95.7647C505.466 93.8333 509.635 87.4067 512.031 87.3711C517.005 92.0892 521.022 98.7186 524.693 104.507C529.656 112.331 534.709 120.476 538.946 128.71C546.585 143.556 552.68 159.05 558.56 174.653C561.046 181.25 563.886 187.837 565.992 194.558C579.902 197.601 593.814 201.031 607.321 205.555C646.778 218.77 683.639 239.65 715.553 266.266C725.782 274.797 736.378 284.011 745.126 294.077L761.523 313.5L770.635 325.622C771.418 326.642 772.733 328.847 773.897 329.39C775.14 329.969 801.377 329.237 805.348 329.226L947.846 329.034C935.086 339.249 923.871 351.306 912.506 363L867.081 410.25L841.102 437.25C834.12 444.405 827.014 451.287 820.909 459.228C826.236 507.21 825.088 558.733 810.374 605.067C818.188 610.151 825.444 617.07 832.4 623.274L859.485 647.622L903.374 686.264C910.068 692.375 916.23 699.439 923.424 704.933L886 696.151L829.185 682.652L810.689 679.75L775.065 674.693C736.61 736.276 676.453 781.612 608.102 805.156C597.795 808.706 587.289 812.13 576.666 814.605C573.969 815.233 566.612 817.814 564.215 817.05C563.068 824.579 560.034 832.414 557.711 839.662C546.166 875.683 530.751 909.856 512.545 942.965C509.455 939.346 507.131 934.598 504.75 930.474C495.5 914.447 488.068 897.564 481.299 880.375C475.115 864.67 469.427 848.857 464.7 832.647C463.469 828.427 461.098 823.372 460.961 819.032C456.675 819.192 450.689 816.92 446.541 815.798C433.496 812.214 420.605 808.415 408.03 803.38C396.535 798.779 385.453 793.124 374.54 787.296C361.366 780.26 348.494 772.801 336.284 764.173C308.351 744.434 282.746 719.102 262.85 691.31C260.973 689.452 259.314 686.481 257.843 684.274C255.147 680.229 251.67 675.776 249.936 671.237C240.558 672.273 231.539 674.81 222.437 677.211L199.01 682.937L101.458 705.843L218.154 598.392L217.715 598.13C215.787 596.768 211.96 580.081 211.347 576.668L211.15 576.425C209.326 572.069 208.953 565.875 208.106 561.179C201.81 526.282 202.999 492.565 206.804 457.521C207.163 455.647 207.607 454.699 206.901 452.898C208.409 449.925 208.543 446.261 209.181 443L212.564 427.734C214.522 419.106 216.892 410.583 219.902 402.261L225.025 388.04C227.04 383.418 230.392 378.079 231.58 373.25L230.639 372.571C231.286 372.355 231.93 372.221 232.595 372.074L249.403 341.754C250.779 339.175 253.033 335.591 255.129 333.588C255.731 333.014 255.693 332.764 255.924 331.968C256.101 330.993 256.584 329.997 256.931 329.065L256.983 329.081L285.336 294.38C289.653 288.383 296.377 283.282 301.592 278.008Z"/>
	<path fill="#DAC7FF" d="M562.34 656.202L563.176 648.546L570.943 648.765L570.527 655.988L562.34 656.202Z"/>
	<path fill="#7151A9" d="M431.705 645.909L430.955 638.875L435.897 634.126L437.447 667.523L432.971 667.972L431.705 645.909Z"/>
	<path fill="#916DD5" d="M588.072 669.764L591.048 608.141L595.917 613.619L595.448 631.022L593.585 666.215C591.871 667.49 590.107 669.072 588.072 669.764Z"/>
	<path fill="#573D7F" d="M702.816 533.124C697.769 535.745 692.766 540.697 688.136 544.127L664.657 560.288L651.297 544.872L670.31 525.866L662.689 515.335C663.841 512.932 671.2 506.847 673.526 505.647C674.805 508.481 679.785 512.039 682.231 514.277L702.816 533.124Z"/>
	<path fill="#EBE0FF" d="M218.154 598.392C219.715 598.967 219.975 599.237 221.08 600.5C219.465 602.946 216.439 605.127 214.27 607.138L202.642 618.207C201.537 619.266 199.437 620.825 198.766 622.11L119.366 696.567L269.608 663.112C276.526 661.566 330.374 649.262 331.212 649.753C332.042 650.24 332.508 650.89 333.114 651.62L289.075 662.611L249.936 671.237C240.558 672.273 231.539 674.81 222.437 677.211L199.01 682.937L101.458 705.843L218.154 598.392Z"/>
	<path fill="#EBE0FF" d="M804.323 602.169C806.512 602.62 808.45 603.966 810.374 605.067C818.188 610.151 825.444 617.07 832.4 623.274L859.485 647.622L903.374 686.264C910.068 692.375 916.23 699.439 923.424 704.933L886 696.151L829.185 682.652L810.689 679.75L775.065 674.693L752.906 670.162C748.272 669.055 743.473 668.099 739.023 666.377L738.91 665.774L737.418 665.537L737.164 665.406C735.846 664.418 734.394 663.641 732.797 663.204L700.208 655.115C696.509 654.369 690.86 652.78 687.182 653.722C685.742 653.444 684.076 653.035 682.826 652.25C681.758 651.58 680.967 650.901 680.75 649.671C685.282 649.551 690.481 651.087 694.999 651.889L731.881 658.829L847.286 682.8C867.893 687.366 889.236 691.272 909.355 697.653L815.644 613.22L804.323 602.169Z"/>
	<path fill="#EBE0FF" d="M199.155 628.401C201.804 626.592 204.26 624.027 206.661 621.884L221.943 608.122L269.855 564.85C277.902 557.591 285.967 549.66 294.49 543.012C294.663 546.136 295.805 554.016 294.392 556.587L166.037 667.35C175.707 663.271 185.928 660.51 195.951 657.405L259.636 638.368L281.901 632.054C283.045 631.667 282.488 631.769 283.7 631.75C282.947 632.35 282.841 632.384 281.972 632.618L140.359 682.563L188.975 637.925L195.83 631.661C196.886 630.708 198.44 629.607 199.155 628.401Z"/>
	<path fill="#AC8BEE" d="M561.009 572.31L560.902 622.435L511.535 622.47L511.566 601.933C512.956 601.606 528.744 582.871 530.746 580.598C532.139 579.017 535.096 575.071 537.143 574.366C538.659 573.844 541.386 573.94 543.026 573.784L561.009 572.31Z"/>
	<path fill="#EBE0FF" d="M673.526 505.647L685.823 502.763L737.945 549.525L777.364 585.026L831.697 635.573L870.271 671.054C873.102 673.837 876.777 676.811 879.049 680.044L802.408 652.672L774.368 642.677C768.521 640.551 762.039 638.642 756.58 635.668C760.198 636.162 763.919 637.729 767.403 638.844L787.593 645.338L836.114 659.813C840.51 661.012 846.957 663.798 851.44 663.803C846.992 658.435 841.272 653.778 836.127 649.083L794.741 613.346L746.734 571.666L702.816 533.124L682.231 514.277C679.785 512.039 674.805 508.481 673.526 505.647Z"/>
	<path fill="#EBE0FF" d="M593.585 666.215L593.335 670.869L587.371 712.231L585.318 724.596L576.724 767.313L573.591 780.917L564.215 817.05C563.068 824.579 560.034 832.414 557.711 839.662C546.166 875.683 530.751 909.856 512.545 942.965C509.455 939.346 507.131 934.598 504.75 930.474C495.5 914.447 488.068 897.564 481.299 880.375C475.115 864.67 469.427 848.857 464.7 832.647C463.469 828.427 461.098 823.372 460.961 819.032L451.323 783.133C450.685 780.358 450.215 776.477 448.466 774.212C447.275 772.232 447.098 768.82 446.645 766.537L441.815 737.534C441.607 736.351 441.402 733.087 440.848 732.166C440.729 731.968 431.515 728.047 430.466 727.535C418.306 721.601 407.014 715.229 395.87 707.571C393.325 705.823 389.98 703.992 388.099 701.508L388.568 700.677L406.623 711.681C417.264 717.703 428.265 722.732 439.807 726.751L432.971 667.972L437.447 667.523C443.094 740.84 460.19 812.649 487.662 880.842C494.793 898.545 502.288 916.789 512.176 933.151C519.871 919.562 526.296 905.325 532.481 891C556.704 834.89 572.577 774.125 582.153 713.836L588.072 669.764C590.107 669.072 591.871 667.49 593.585 666.215Z"/>
	<path fill="#DAC7FF" d="M773.725 447.653C780.42 480.958 781.866 514.528 778.214 548.296C777.24 557.306 776.168 566.644 774.31 575.519C773.145 572.885 767.296 568.762 765.023 566.733L742.818 546.422L743.534 507.04C744.3 502.389 743.018 495.576 742.583 490.787C746.266 486.888 749.422 482.303 752.682 478.047C756.961 472.461 761.399 466.922 765.25 461.029L773.725 447.653Z"/>
	<path fill="#7151A9" d="M730.983 433.505C736.923 452.033 740.914 471.379 742.583 490.787C743.018 495.576 744.3 502.389 743.534 507.04C741.368 507.645 725.617 524.67 722.323 527.906L676.569 486.663L730.983 433.505Z"/>
	<path fill="#AC8BEE" d="M662.414 568.38L706.271 619.961C706.854 620.627 709.179 622.829 709.142 623.605L638.898 623.441L596.337 573.027C604.634 572.963 659.423 570.07 662.414 568.38Z"/>
	<path fill="#46325D" d="M595.917 613.619C602.641 618.003 607.982 625.422 613.675 631.08L622.953 640.731C624.618 642.56 626.302 644.837 628.161 646.45C628.828 647.286 630.502 649.966 631.304 650.383C632.468 650.988 635.665 651.045 637.084 651.245C643.202 652.106 649.486 652.773 655.5 654.133C657.055 654.485 658.78 654.372 660.26 654.96C661.362 655.397 662.545 655.24 663.75 655.675C665.426 656.28 668.36 656.68 670.159 656.721C670.986 656.74 670.527 656.669 671.193 656.99C672.116 657.435 673.249 657.274 674.255 657.25L674.75 657.755L672.845 659.271C670.764 660.929 669.316 663.237 667.003 664.503C665.233 665.473 663.881 667.839 662.003 669.003C660.727 669.794 659.874 671.153 658.503 672.003C657.153 672.838 656.512 674.174 655.003 675.003C654.141 675.475 653.471 676.434 652.503 677.003C651.369 677.668 650.778 678.803 649.502 679.503C648.595 680 648.044 680.931 647.003 681.504C646.01 682.051 645.688 682.949 644.503 683.503L642.767 684.879C642.087 685.445 641.487 685.795 640.75 686.255L637.749 688.283C636.87 688.874 635.906 689.247 635.058 689.87C631.27 692.653 626.419 694.928 622.279 697.205C612.322 702.683 602.938 707.737 592.199 711.632C590.444 712.269 589.227 712.426 587.371 712.231L593.335 670.869L593.585 666.215L595.448 631.022L595.917 613.619Z"/>
	<path fill="#573D7F" d="M604.629 637.705L613.675 631.08L622.953 640.731C624.618 642.56 626.302 644.837 628.161 646.45C623.432 648.405 619.862 651.23 615.873 654.373C614.122 655.753 611.941 657.108 610.684 658.97C606.019 654.158 602.094 648.404 598.885 642.543L604.629 637.705Z"/>
	<path fill="#573D7F" d="M366.901 684.03C367.048 683.691 367.364 682.849 367.25 682.469C366.832 681.076 365.441 679.363 364.805 677.96C363.533 675.149 362.867 672.034 362.114 669.053L380.416 653.936L387.366 647.862C388.08 647.247 389.517 645.756 390.322 645.426C391.939 644.765 397.502 645.444 399.52 645.486L431.705 645.909L432.971 667.972L439.807 726.751C428.265 722.732 417.264 717.703 406.623 711.681L388.568 700.677C388.347 699.999 383.816 697.201 382.935 696.576C377.503 692.719 371.803 688.555 366.901 684.03Z"/>
	<path fill="#EBE0FF" d="M570.527 655.988C567.909 687.8 562.441 719.507 555.62 750.664C545.876 795.17 533.15 839.94 512.197 880.595C482.781 821.394 465.21 756.133 456.643 690.71L452.738 647.87L461.842 648.016L470.228 709.815C476.524 743.63 486.469 776.787 500.535 808.186L509.549 826.477C510.591 828.362 511.659 830.956 512.999 832.607L513.329 832.833C523.336 810.415 532.317 787.501 539.495 764C550.231 728.845 557.269 692.564 562.34 656.202L570.527 655.988Z"/>
	<path fill="#DAC7FF" d="M511.437 506.273C520.834 508.691 530.214 513.844 539 517.939L571.893 532.675C575.495 534.177 579.857 533.447 583.657 533.083L596.75 531.963C607.352 531.08 617.937 529.938 628.582 529.827L662.414 568.38C659.423 570.07 604.634 572.963 596.337 573.027C592.907 569.875 589.836 565.633 586.849 562.033L560.953 529.803L561.009 572.31L543.026 573.784C541.386 573.94 538.659 573.844 537.143 574.366C535.096 575.071 532.139 579.017 530.746 580.598C528.744 582.871 512.956 601.606 511.566 601.933L511.437 506.273Z"/>
	<path fill="#DAC7FF" d="M687.182 653.722C690.86 652.78 696.509 654.369 700.208 655.115L732.797 663.204C734.394 663.641 735.846 664.418 737.164 665.406C735.237 665.108 733.307 664.86 731.428 664.329C695.392 711.021 635.024 755.424 576.724 767.313L585.318 724.596C590.052 723.104 594.635 721.012 599.203 719.075C610.677 714.21 621.685 708.678 632.25 702.051L649.685 690.103C656.891 684.645 685.587 660.742 687.182 653.722Z"/>
	<path fill="#DAC7FF" d="M333.114 651.62C338.801 658.383 345.279 664.633 351.733 670.662C356.602 675.21 361.611 679.982 366.901 684.03C371.803 688.555 377.503 692.719 382.935 696.576C383.816 697.201 388.347 699.999 388.568 700.677L388.099 701.508C389.98 703.992 393.325 705.823 395.87 707.571C407.014 715.229 418.306 721.601 430.466 727.535C431.515 728.047 440.729 731.968 440.848 732.166C441.402 733.087 441.607 736.351 441.815 737.534L446.645 766.537C447.098 768.82 447.275 772.232 448.466 774.212C398.028 757.53 353.437 730.186 315.762 692.75C309.971 686.996 304.424 681.139 299.205 674.858C296.12 671.146 293.086 666.369 289.621 663.112L289.075 662.611L333.114 651.62Z"/>
	<path fill="#AC8BEE" d="M475.082 467.491L475.6 489.66L475.308 559.737L475.25 573.515C475.242 574.779 475.545 576.879 475.173 578.021C474.958 578.68 474.762 578.897 474.319 579.324C469.691 583.789 430.045 623.101 428.04 623.595C426.366 624.006 423.363 623.634 421.557 623.645L404.579 623.664L338.807 623.914L314.07 600.881C318.521 597.948 323.28 595.922 328.069 593.611C348.917 583.548 370.921 576.174 393.84 572.701C398.1 571.672 403.065 571.425 407.444 571.219C411.532 571.027 420.554 572.034 423.766 569.607L424.206 569.25C425.949 567.864 427.461 566.461 428.452 564.427C430.085 561.073 430.105 556.863 431.017 553.25C432.341 548.002 435.039 542.563 437.769 537.921C446.828 522.518 460.788 509.955 475.104 499.522L475.082 467.491Z"/>
	<path fill="#573D7F" d="M289.075 662.611L289.621 663.112C293.086 666.369 296.12 671.146 299.205 674.858C304.424 681.139 309.971 686.996 315.762 692.75C353.437 730.186 398.028 757.53 448.466 774.212C450.215 776.477 450.685 780.358 451.323 783.133L460.961 819.032C456.675 819.192 450.689 816.92 446.541 815.798C433.496 812.214 420.605 808.415 408.03 803.38C396.535 798.779 385.453 793.124 374.54 787.296C361.366 780.26 348.494 772.801 336.284 764.173C308.351 744.434 282.746 719.102 262.85 691.31C260.973 689.452 259.314 686.481 257.843 684.274C255.147 680.229 251.67 675.776 249.936 671.237L289.075 662.611Z"/>
	<path fill="#46325D" d="M417.782 773.555C425.68 775.187 433.894 778.488 441.578 781.043C444.445 781.996 447.832 783.548 450.829 783.782L451.323 783.133L460.961 819.032C456.675 819.192 450.689 816.92 446.541 815.798C445.574 813.359 443.665 811.118 442.337 808.837C437.728 800.922 433.126 792.726 427.522 785.471C424.412 781.446 420.605 777.745 417.782 773.555Z"/>
	<path fill="#3F3649" d="M289.075 662.611L289.621 663.112C293.086 666.369 296.12 671.146 299.205 674.858C304.424 681.139 309.971 686.996 315.762 692.75C353.437 730.186 398.028 757.53 448.466 774.212C450.215 776.477 450.685 780.358 451.323 783.133L450.829 783.782C447.832 783.548 444.445 781.996 441.578 781.043C433.894 778.488 425.68 775.187 417.782 773.555C397.092 764.358 375.871 754.148 357.336 741.083C334.989 725.33 316.698 705.456 300.085 683.921C296.588 683.752 292.45 685.171 289 685.911L262.85 691.31C260.973 689.452 259.314 686.481 257.843 684.274C255.147 680.229 251.67 675.776 249.936 671.237L289.075 662.611Z"/>
	<path class="ring" fill="#46325D" d="M576.724 767.313C635.024 755.424 695.392 711.021 731.428 664.329C733.307 664.86 735.237 665.108 737.164 665.406L737.418 665.537L738.91 665.774L739.023 666.377C743.473 668.099 748.272 669.055 752.906 670.162L775.065 674.693C736.61 736.276 676.453 781.612 608.102 805.156C597.795 808.706 587.289 812.13 576.666 814.605C573.969 815.233 566.612 817.814 564.215 817.05L573.591 780.917L576.724 767.313Z"/>
	<path fill="#3F3649" d="M576.724 767.313C635.024 755.424 695.392 711.021 731.428 664.329C733.307 664.86 735.237 665.108 737.164 665.406L737.418 665.537L737.902 666.921C697.45 720.656 637.911 761.537 573.591 780.917L576.724 767.313Z"/>
	<path fill="#916DD5" d="M504.591 483.595C505.183 490.102 504.857 496.792 504.834 503.333L504.649 536.96L504.986 617.282L505.014 639.892C505.015 642.547 504.532 646.196 505.245 648.729L554.685 648.573C553.578 660.195 551.213 671.582 549.101 683.048C543.338 714.325 536.102 745.77 526.011 775.942C522.182 787.392 518.297 798.84 513.155 809.784C505.282 797.105 499.85 781.507 494.969 767.439C481.388 728.298 472.577 687.998 469.471 646.648L468.054 606.88C471.401 602.126 476.571 598.241 480.694 594.128C481.319 593.504 483.363 591.823 483.677 591.082C483.976 590.378 483.664 587.559 483.661 586.691L483.617 573.28L483.488 496.808C490.572 492.262 497.045 487.429 504.591 483.595Z"/>
	<path fill="#EBE0FF" d="M487.92 607.75L488.816 607.844C490.086 610.09 490.819 612.498 491.409 614.999C493.811 625.193 495.085 635.714 496.163 646.118L498.55 680.258L500.994 724.234L501.267 736.792C501.284 738.494 501.642 740.448 500.75 741.904L499.381 738.124C493.523 716.891 486.749 696.655 484.465 674.594C482.968 660.139 478.958 618.76 487.92 607.75Z"/>
	<path fill="#EBE0FF" d="M511.437 506.273L511.011 396.503L559.481 396.742L559.534 486.652C567.956 478.268 575.411 468.703 583.208 459.733L623.258 412.166L630.853 402.373C631.419 401.647 632.574 399.711 633.261 399.317C633.518 399.169 635.47 399.301 635.833 399.298L644.697 399.238L700.276 398.998L710.911 399.276L606.757 505.557L628.582 529.827C617.937 529.938 607.352 531.08 596.75 531.963L583.657 533.083C579.857 533.447 575.495 534.177 571.893 532.675L539 517.939C530.214 513.844 520.834 508.691 511.437 506.273Z"/>
	<path fill="#EBE0FF" d="M301.592 278.008C301.678 274.183 306.33 270.789 309.034 268.203C319.457 258.234 331.889 249.676 344.035 241.956C366.949 227.393 391.41 214.811 417.143 205.994C426.591 202.756 436.027 199.893 445.75 197.586L452.888 196.197C453.172 196.151 455.05 195.92 455.148 195.841C455.487 195.57 456.443 192.432 456.671 191.831L462.672 175.681C473.368 146.994 485.71 120.448 504.032 95.7647C505.466 93.8333 509.635 87.4067 512.031 87.3711C517.005 92.0892 521.022 98.7186 524.693 104.507C529.656 112.331 534.709 120.476 538.946 128.71C546.585 143.556 552.68 159.05 558.56 174.653C561.046 181.25 563.886 187.837 565.992 194.558C579.902 197.601 593.814 201.031 607.321 205.555C646.778 218.77 683.639 239.65 715.553 266.266C725.782 274.797 736.378 284.011 745.126 294.077L761.523 313.5L770.635 325.622C771.418 326.642 772.733 328.847 773.897 329.39C775.14 329.969 801.377 329.237 805.348 329.226L947.846 329.034C935.086 339.249 923.871 351.306 912.506 363L867.081 410.25L841.102 437.25C834.12 444.405 827.014 451.287 820.909 459.228C826.236 507.21 825.088 558.733 810.374 605.067C808.45 603.966 806.512 602.62 804.323 602.169L804.209 602.147L802.904 601.082C794.689 595.004 787.295 586.975 779.79 579.987C782.077 573.435 783.049 566.266 783.957 559.396C790.213 512.047 785.101 461.235 768.799 416.347C766.022 408.702 762.442 401.294 759.061 393.901C752.513 379.585 744.861 364.802 734.933 352.5C734.034 351.385 733.693 350.797 732.24 350.667C751.452 380.873 766.61 412.313 773.725 447.653L765.25 461.029C761.399 466.922 756.961 472.461 752.682 478.047C749.422 482.303 746.266 486.888 742.583 490.787C740.914 471.379 736.923 452.033 730.983 433.505C726.037 419.562 720.516 406.091 713.399 393.098C707.451 382.239 700.502 371.974 693.321 361.901L691.973 362.53C668.611 344.755 642.247 331.188 614.548 321.596C607.09 319.013 598.989 317.806 591.711 315.024L591.17 314.813L595.518 401.141L595.492 423.576L590.674 426.059C588.919 427.244 586.997 428.053 585.076 428.929C581.689 431.248 577.547 434.605 573.675 435.959L565.947 440.252L566.208 389.93L504.568 390.025L504.591 483.595C497.045 487.429 490.572 492.262 483.488 496.808L483.409 455.217C482.485 459.108 483.443 478.3 482.255 479.5C482.248 485.173 481.583 491.815 482.375 497.375C481.666 497.937 481.336 498.009 480.5 498.25L479.766 498.5C478.437 498.943 477.649 499.038 476.248 498.875L476.205 490.072L475.6 489.66L475.082 467.491L475.104 499.522C460.788 509.955 446.828 522.518 437.769 537.921C435.039 542.563 432.341 548.002 431.017 553.25C430.105 556.863 430.085 561.073 428.452 564.427C427.461 566.461 425.949 567.864 424.206 569.25L423.766 569.607C420.554 572.034 411.532 571.027 407.444 571.219C403.065 571.425 398.1 571.672 393.84 572.701C370.921 576.174 348.917 583.548 328.069 593.611C323.28 595.922 318.521 597.948 314.07 600.881L299.433 588.272C299.081 587.647 299.236 587.99 298.965 587.076L298.75 586.328L297.25 586.095C297.194 586.077 295.795 585.468 295.679 585.346C294.952 584.583 295.184 581.448 295.171 580.377L295.078 564.426C295.068 561.973 295.601 558.721 294.392 556.587C295.805 554.016 294.663 546.136 294.49 543.012C285.967 549.66 277.902 557.591 269.855 564.85L221.943 608.122L206.661 621.884C204.26 624.027 201.804 626.592 199.155 628.401L198.719 627.561C196.945 628.919 195.376 630.72 193.875 632.375L193.25 631.755L192.857 629.656C192.555 628.473 198.296 624.326 198.766 622.11C199.437 620.825 201.537 619.266 202.642 618.207L214.27 607.138C216.439 605.127 219.465 602.946 221.08 600.5C219.975 599.237 219.715 598.967 218.154 598.392L217.715 598.13C215.787 596.768 211.96 580.081 211.347 576.668L211.15 576.425C209.326 572.069 208.953 565.875 208.106 561.179C201.81 526.282 202.999 492.565 206.804 457.521C207.163 455.647 207.607 454.699 206.901 452.898C208.409 449.925 208.543 446.261 209.181 443L212.564 427.734C214.522 419.106 216.892 410.583 219.902 402.261L225.025 388.04C227.04 383.418 230.392 378.079 231.58 373.25L230.639 372.571C231.286 372.355 231.93 372.221 232.595 372.074L249.403 341.754C250.779 339.175 253.033 335.591 255.129 333.588C255.731 333.014 255.693 332.764 255.924 331.968C256.101 330.993 256.584 329.997 256.931 329.065L256.983 329.081L285.336 294.38C289.653 288.383 296.377 283.282 301.592 278.008Z"/>
	<path fill="#DAC7FF" d="M283.829 361.515C289.813 352.454 295.876 343.431 302.743 335.008C310.051 326.045 318.255 317.77 326.65 309.833C330.892 305.823 335.151 301.505 339.897 298.103L339.598 298.982C338.234 302.639 334.91 305.465 332.2 308.147L320.39 319.864C313.55 326.974 306.523 334.056 300.707 342.051C293.236 352.32 286.582 363.755 280.708 375.001C276.47 383.115 272.304 391.127 268.809 399.611C251.762 440.99 244.55 487.32 248.707 531.887L250.907 550C251.69 555.771 252.554 561.789 254.819 567.201L255.356 568.347L250.16 572.783L245.295 547.195C245.824 545.638 244.59 540.487 244.203 538.638C239.33 488.944 245.561 438.675 266.538 393C271.554 382.078 277.592 371.77 283.829 361.515Z"/>
	<path fill="#46325D" d="M591.17 314.813L587.791 285.843C594.59 287.938 601.157 290.921 607.63 293.855C632.501 305.125 654.635 320.862 673.941 340.131C680.72 346.897 687.615 354.197 693.321 361.901L691.973 362.53C668.611 344.755 642.247 331.188 614.548 321.596C607.09 319.013 598.989 317.806 591.711 315.024L591.17 314.813Z"/>
	<path fill="#7151A9" d="M772.004 333.189L937.256 333.027L898.166 372.166C895.07 370.931 891.767 371.318 888.5 371.273C882.303 371.188 875.614 371.605 869.5 370.995L833.554 370.452C831.574 370.517 829.53 370.904 828 372.255L826.014 372.502C826.398 372.98 826.794 372.912 827.377 373.036L827.056 374.041C825.022 372.51 798.947 373.21 794.906 373.205C793.487 366.948 788.415 360.364 785.089 354.908L773.793 336.25C773.138 335.213 772.535 334.306 772.004 333.189Z"/>
	<path fill="#46325D" d="M285.607 542.56C283.122 528.855 282.596 514.937 282.858 501.038C283.494 467.382 289.932 434.376 304.891 404C311.644 390.287 319.217 377.041 328.42 364.8C346.714 340.467 369.925 320.592 395.875 304.847C407.843 297.585 420.912 290.601 434.201 286.085L430.473 320.242C424.51 321.715 418.279 325.242 412.745 327.982C380.021 344.187 351.817 369.678 332.908 401.001C329.045 407.4 324.364 412.654 319.21 418.067L300.564 436.88C299.206 438.248 295.787 440.99 295.096 442.589C294.895 443.055 295.077 445.079 295.073 445.678L294.991 456.705L294.706 516.688L294.739 528.565C294.744 529.991 295.049 532.128 294.764 533.444C294.383 535.207 287.324 541.697 285.607 542.56Z"/>
	<defs>
		<linearGradient id="gradient_3" gradientUnits="userSpaceOnUse" x1="350.52957" y1="561.59949" x2="272.49564" y2="393.6076">
			<stop offset="0" stop-color="#432D81"/>
			<stop offset="1" stop-color="#8878AB"/>
		</linearGradient>
	</defs>
	<path fill="url(#gradient_3)" d="M430.473 320.242L428.199 391.866C429.305 392.675 430.866 392.493 432.223 392.19L432.972 391.931C435.285 392.438 436.673 394.331 438.303 395.939L449.475 407.159L476.087 434.378L481.608 440.196C481.99 440.618 483.313 441.793 483.494 442.298C483.757 443.028 483.48 445.132 483.476 445.971L483.426 455.15L483.409 455.217C482.485 459.108 483.443 478.3 482.255 479.5C482.248 485.173 481.583 491.815 482.375 497.375C481.666 497.937 481.336 498.009 480.5 498.25L479.766 498.5C478.437 498.943 477.649 499.038 476.248 498.875L476.205 490.072L475.6 489.66L475.082 467.491L475.114 443.378L438.354 406.054L432.592 400.304C432.266 399.982 431.141 398.63 430.747 398.487C430.123 398.262 428.353 398.461 427.651 398.453L420.347 398.373L373.964 398.069L347.026 398.501L307.25 437.41L301.869 442.461C301.407 442.885 300.236 443.69 299.999 444.159C299.754 444.642 300.005 447.247 300.007 447.884L300.029 463.59L299.837 534.855L299.927 561.827L299.433 588.272C299.081 587.647 299.236 587.99 298.965 587.076L298.75 586.328L297.25 586.095C297.194 586.077 295.795 585.468 295.679 585.346C294.952 584.583 295.184 581.448 295.171 580.377L295.078 564.426C295.068 561.973 295.601 558.721 294.392 556.587C295.805 554.016 294.663 546.136 294.49 543.012C285.967 549.66 277.902 557.591 269.855 564.85L221.943 608.122L206.661 621.884C204.26 624.027 201.804 626.592 199.155 628.401L198.719 627.561C196.945 628.919 195.376 630.72 193.875 632.375L193.25 631.755L192.857 629.656C192.555 628.473 198.296 624.326 198.766 622.11C199.437 620.825 201.537 619.266 202.642 618.207L214.27 607.138C216.439 605.127 219.465 602.946 221.08 600.5C219.975 599.237 219.715 598.967 218.154 598.392L217.715 598.13C215.787 596.768 211.96 580.081 211.347 576.668L211.742 576.348L212.489 579.011L212.826 580.183C212.982 581.181 212.95 581.652 213.378 582.622C214.598 585.395 215.407 589.363 216.125 592.375C216.443 593.711 216.745 595.37 217.498 596.548C217.956 597.264 218.32 597.458 219.1 597.692C220.012 597.966 219.586 597.746 220.514 598.337L221.125 598.753L240.625 580.503C241.751 579.823 240.81 580.718 241.669 579.859C242.466 579.063 249.372 572.991 249.375 572.753C249.377 572.61 248.782 571.933 248.755 571.75C248.68 571.249 248.918 570.75 249 570.25L248.255 569.25L248.5 568C247.665 566.82 247.631 565.659 247.5 564.25L247.377 563C246.854 561.627 246.745 561.813 247 560.25C246.154 559.231 246.344 559.02 246.255 557.75C245.393 556.457 246.181 556.172 245.877 555C245.264 552.631 245.867 556.281 245.377 553.5L244.93 550.549L244.877 550C244.746 548.881 244.999 548.285 245.295 547.195L250.16 572.783L255.356 568.347L285.607 542.56C287.324 541.697 294.383 535.207 294.764 533.444C295.049 532.128 294.744 529.991 294.739 528.565L294.706 516.688L294.991 456.705L295.073 445.678C295.077 445.079 294.895 443.055 295.096 442.589C295.787 440.99 299.206 438.248 300.564 436.88L319.21 418.067C324.364 412.654 329.045 407.4 332.908 401.001C351.817 369.678 380.021 344.187 412.745 327.982C418.279 325.242 424.51 321.715 430.473 320.242Z"/>
	<path fill="#916DD5" d="M432.972 391.931C431.403 378.003 432.662 363.123 433.174 349.142C434.118 323.418 437.192 297.626 441.599 272.279C452.412 210.082 472.464 145.393 511.608 94.9504C516.106 100.437 520.013 106.715 523.696 112.773C525.96 116.498 528.438 120.248 530.278 124.203C539.555 139.836 546.347 156.657 553.053 173.5C576.831 233.225 586.852 296.454 589.444 360.445L590.674 426.059C588.919 427.244 586.997 428.053 585.076 428.929C581.689 431.248 577.547 434.605 573.675 435.959L573.458 377.325C571.82 309.451 563.608 238.788 535.562 176.301C528.819 161.277 521.719 146.245 511.632 133.125C502.679 144.515 495.528 157.85 489.342 170.906C465.899 220.379 456.644 274.571 452.472 328.75L449.475 407.159L438.303 395.939C436.673 394.331 435.285 392.438 432.972 391.931Z"/>
	<path fill="#7151A9" d="M585.076 428.929C586.492 421.779 585.591 413.161 585.547 405.809C585.338 370.423 584.776 334.805 578.71 299.853C578.044 296.015 577.802 290.808 576.58 287.227C576.321 286.471 576.409 286.881 576.313 285.812L576.255 285C575.374 283.679 576.079 282.631 575.594 281.211L575.413 280.748L575.255 279.25C574.851 277.7 574.558 276.718 574.653 275.035L574.755 273.75C574.403 271.983 574.617 268.986 574.005 267.457L573.755 267C574.826 263.213 572.889 259.126 572.432 255.24L572.255 253.754C571.774 251.164 571.982 248.531 571.257 246.002C570.514 243.411 571.168 240.833 570.632 238.256C570.426 237.268 570.198 236.662 570.347 235.645C570.671 233.436 570.179 231.514 570.435 229.281C570.554 228.236 569.954 228.513 569.801 227.75C569.703 227.255 570.119 226.74 570 226.25C569.917 225.908 569.34 225.842 569.255 225.5C569.152 225.088 569.624 224.656 569.5 224.25C569.036 222.733 568.417 222.966 568.378 221C567.535 219.595 567.761 218.9 567.378 217.5C567.059 216.339 566.729 215.119 566.104 214.07C565.607 213.236 565.82 213.167 566 212.25C565.496 211.65 565.233 211.26 564.98 210.5L564.755 209.75C564.355 208.556 564.485 207.409 564 206.25L563.078 203.997L560.578 196.337L560.378 195.5C559.609 193.573 560.137 195.627 559.729 194.004L559.378 192.5L559.078 191.837C558.607 190.422 559.177 191.55 558.578 190.337C558.238 189.648 557.824 189.007 557.574 188.275L552.755 175.75C552.054 174.122 551.31 173.039 551.5 171.25C550.676 170.208 549.765 168.994 549.43 167.697C549.062 166.271 548.223 164.829 547.528 163.523C545.754 160.189 545.291 156.486 543.612 153.137L543.413 152.748C543.554 151.135 542.167 149.632 541.413 148.17L541.5 147.25L540.42 146.679C539.94 142.63 536.087 137.059 534.255 133.25L533.503 132.858C533.164 131.685 532.735 130.612 532.171 129.525L531.755 128.75C531.243 127.783 530.48 126.928 530.003 125.998C529.548 125.111 529.894 124.973 530.278 124.203C539.555 139.836 546.347 156.657 553.053 173.5C576.831 233.225 586.852 296.454 589.444 360.445L590.674 426.059C588.919 427.244 586.997 428.053 585.076 428.929Z"/>
	<defs>
		<linearGradient id="gradient_4" gradientUnits="userSpaceOnUse" x1="158.92595" y1="533.61243" x2="483.8136" y2="231.00914">
			<stop offset="0" stop-color="#594393"/>
			<stop offset="1" stop-color="#B488DC"/>
		</linearGradient>
	</defs>
	<path fill="url(#gradient_4)" d="M301.592 278.008C344.268 239.268 397.927 210.476 454.49 198.626L442.931 242.067C442.463 242.775 442.114 243.085 441.32 243.412C437.661 244.918 433.675 245.745 429.914 246.986C422.896 249.301 415.927 252.077 409.213 255.165C392.229 262.978 376.054 271.67 360.526 282.094C353.361 286.904 346.056 292.011 339.897 298.103C335.151 301.505 330.892 305.823 326.65 309.833C318.255 317.77 310.051 326.045 302.743 335.008C295.876 343.431 289.813 352.454 283.829 361.515C277.592 371.77 271.554 382.078 266.538 393C245.561 438.675 239.33 488.944 244.203 538.638C244.59 540.487 245.824 545.638 245.295 547.195C244.999 548.285 244.746 548.881 244.877 550L244.93 550.549L245.377 553.5C245.867 556.281 245.264 552.631 245.877 555C246.181 556.172 245.393 556.457 246.255 557.75C246.344 559.02 246.154 559.231 247 560.25C246.745 561.813 246.854 561.627 247.377 563L247.5 564.25C247.631 565.659 247.665 566.82 248.5 568L248.255 569.25L249 570.25C248.918 570.75 248.68 571.249 248.755 571.75C248.782 571.933 249.377 572.61 249.375 572.753C249.372 572.991 242.466 579.063 241.669 579.859C240.81 580.718 241.751 579.823 240.625 580.503L221.125 598.753L220.514 598.337C219.586 597.746 220.012 597.966 219.1 597.692C218.32 597.458 217.956 597.264 217.498 596.548C216.745 595.37 216.443 593.711 216.125 592.375C215.407 589.363 214.598 585.395 213.378 582.622C212.95 581.652 212.982 581.181 212.826 580.183L212.489 579.011L211.742 576.348L211.347 576.668L211.15 576.425C209.326 572.069 208.953 565.875 208.106 561.179C201.81 526.282 202.999 492.565 206.804 457.521C207.163 455.647 207.607 454.699 206.901 452.898C208.409 449.925 208.543 446.261 209.181 443L212.564 427.734C214.522 419.106 216.892 410.583 219.902 402.261L225.025 388.04C227.04 383.418 230.392 378.079 231.58 373.25L230.639 372.571C231.286 372.355 231.93 372.221 232.595 372.074L249.403 341.754C250.779 339.175 253.033 335.591 255.129 333.588C255.731 333.014 255.693 332.764 255.924 331.968C256.101 330.993 256.584 329.997 256.931 329.065L256.983 329.081L285.336 294.38C289.653 288.383 296.377 283.282 301.592 278.008Z"/>
	<defs>
		<linearGradient id="gradient_5" gradientUnits="userSpaceOnUse" x1="275.61383" y1="363.6492" x2="377.15302" y2="404.48538">
			<stop offset="0" stop-color="#55269B"/>
			<stop offset="1" stop-color="#6D5F9E"/>
		</linearGradient>
	</defs>
	<path fill="url(#gradient_5)" d="M442.931 242.067C442.463 242.775 442.114 243.085 441.32 243.412C437.661 244.918 433.675 245.745 429.914 246.986C422.896 249.301 415.927 252.077 409.213 255.165C392.229 262.978 376.054 271.67 360.526 282.094C353.361 286.904 346.056 292.011 339.897 298.103C335.151 301.505 330.892 305.823 326.65 309.833C318.255 317.77 310.051 326.045 302.743 335.008C295.876 343.431 289.813 352.454 283.829 361.515C277.592 371.77 271.554 382.078 266.538 393C245.561 438.675 239.33 488.944 244.203 538.638L243.77 539.997L243.377 539.5C243.403 538.525 243.552 537.397 243.204 536.476C242.475 534.545 242.873 532.44 242.419 530.439C242.225 529.588 242.223 529.962 242.301 529.166C242.4 528.16 242.284 527.252 242.255 526.25L242.25 525.5C242.013 524.019 241.787 522.823 241.755 521.25C241.305 521.636 241.606 521.473 240.757 521.5L240.342 504.071L241.112 483C243.702 438.235 260.355 392.829 285.071 355.614C293.066 343.353 301.971 331.937 311.99 321.256L324.363 308.858L324.714 308.47C350.606 283.449 382.981 264.642 415.999 250.797C424.219 247.35 434.027 243.125 442.931 242.067Z"/>
	<defs>
		<linearGradient id="gradient_6" gradientUnits="userSpaceOnUse" x1="876.93073" y1="504.63104" x2="521.59772" y2="266.49191">
			<stop offset="0" stop-color="#4B3689"/>
			<stop offset="1" stop-color="#A480CE"/>
		</linearGradient>
	</defs>
	<path fill="url(#gradient_6)" d="M677.612 292.083C676.76 292.027 665.041 282.979 663.264 281.755L642.653 268.74C622.939 257.304 601.652 248.682 579.595 242.959L567.045 197.848L601.64 207.179C631.458 216.794 659.959 230.355 685.972 247.853C692.943 252.541 700.091 257.323 706.369 262.931C727.311 279.178 744.619 297.827 761.302 318.324C764.701 322.499 770.08 328.25 772.004 333.189C772.535 334.306 773.138 335.213 773.793 336.25L785.089 354.908C788.415 360.364 793.487 366.948 794.906 373.205C798.947 373.21 825.022 372.51 827.056 374.041L827.377 373.036C826.794 372.912 826.398 372.98 826.014 372.502L828 372.255C829.53 370.904 831.574 370.517 833.554 370.452L869.5 370.995C875.614 371.605 882.303 371.188 888.5 371.273C891.767 371.318 895.07 370.931 898.166 372.166L819.916 454.105L820.909 459.228C826.236 507.21 825.088 558.733 810.374 605.067C808.45 603.966 806.512 602.62 804.323 602.169L804.209 602.147L802.904 601.082C794.689 595.004 787.295 586.975 779.79 579.987C782.077 573.435 783.049 566.266 783.957 559.396C790.213 512.047 785.101 461.235 768.799 416.347C766.022 408.702 762.442 401.294 759.061 393.901C752.513 379.585 744.861 364.802 734.933 352.5C734.034 351.385 733.693 350.797 732.24 350.667C731.287 350.228 729.402 347.023 728.728 346.091L718.428 332.551C706.233 317.608 692.512 304.305 677.612 292.083Z"/>
	<path fill="#DAC7FF" d="M794.906 373.205C798.947 373.21 825.022 372.51 827.056 374.041L805.504 396.895L794.906 373.205Z"/>
	<path fill="#EBE0FF" d="M449.475 407.159L452.472 328.75C456.644 274.571 465.899 220.379 489.342 170.906C495.528 157.85 502.679 144.515 511.632 133.125C521.719 146.245 528.819 161.277 535.562 176.301C563.608 238.788 571.82 309.451 573.458 377.325L573.675 435.959L565.947 440.252L566.208 389.93L504.568 390.025L504.591 483.595C497.045 487.429 490.572 492.262 483.488 496.808L483.409 455.217L483.426 455.15L483.476 445.971C483.48 445.132 483.757 443.028 483.494 442.298C483.313 441.793 481.99 440.618 481.608 440.196L476.087 434.378L449.475 407.159Z"/>
	<defs>
		<linearGradient id="gradient_7" gradientUnits="userSpaceOnUse" x1="546.91107" y1="257.3472" x2="480.66321" y2="223.97571">
			<stop offset="0" stop-color="#3F98EE"/>
			<stop offset="1" stop-color="#77BBF4"/>
		</linearGradient>
	</defs>
	<path fill="url(#gradient_7)" d="M508.566 180.616C511.101 180.608 513.391 180.257 515.818 181.246L516.5 181.544L517.827 182.13C520.783 183.696 523.452 187.085 525.41 189.75C531.781 198.421 535.94 207.838 538.927 218.136C544.582 237.63 547.168 261.731 536.899 280.187C532.125 288.766 526.057 294.716 516.459 297.476C509.763 298.354 504.371 297.432 498.722 293.547C488.144 286.273 483.708 273.833 481.335 261.75C478.175 245.652 481.456 226.839 487.02 211.63C490.969 200.835 497.586 185.747 508.566 180.616Z"/>
	<path fill="#DAC7FF" d="M507.433 186.942L507.853 186.934C509.837 186.882 511.74 186.54 513.427 187.782C516.246 189.859 517.467 194.202 518.049 197.475L518.206 198.389L518.516 200.09C519.792 207.892 519.568 216.13 519.029 224C517.897 240.514 514.664 259.822 504.542 273.456C502.104 276.74 500.002 279.334 495.75 279.936C494.98 279.735 494.651 279.624 494.003 279.211C489.513 276.345 486.691 267.723 485.597 262.793C480.35 239.13 486.087 215.967 498.57 195.543C500.815 191.871 503.531 188.86 507.433 186.942Z"/>
	<path fill="#EBE0FF" d="M500.221 219.75C501.244 219.51 502.452 219.424 503.5 219.494C505.227 219.61 506.86 220.804 507.849 222.183C510.159 225.405 509.79 231.62 509.15 235.357C508.088 241.56 505.647 246.392 500.468 250.002C499.148 250.336 497.773 250.64 496.5 249.923C494.45 248.768 493.158 246.058 492.571 243.866L492.416 243.25C491.679 240.404 491.39 237.482 491.788 234.559L491.906 233.75C492.12 232.209 492.352 230.728 492.837 229.245C494.271 224.869 496.018 221.879 500.221 219.75Z"/>
	<path fill="#EBE0FF" d="M299.927 561.827L299.837 534.855L300.029 463.59L300.007 447.884C300.005 447.247 299.754 444.642 299.999 444.159C300.236 443.69 301.407 442.885 301.869 442.461L307.25 437.41L347.026 398.501L373.964 398.069L420.347 398.373L427.651 398.453C428.353 398.461 430.123 398.262 430.747 398.487C431.141 398.63 432.266 399.982 432.592 400.304L438.354 406.054L475.114 443.378L475.082 467.491L475.104 499.522C460.788 509.955 446.828 522.518 437.769 537.921C435.039 542.563 432.341 548.002 431.017 553.25C430.105 556.863 430.085 561.073 428.452 564.427C427.461 566.461 425.949 567.864 424.206 569.25L423.766 569.607C420.554 572.034 411.532 571.027 407.444 571.219C403.065 571.425 398.1 571.672 393.84 572.701C370.921 576.174 348.917 583.548 328.069 593.611C323.28 595.922 318.521 597.948 314.07 600.881L299.433 588.272L299.927 561.827Z"/>
	<path fill="#DAC7FF" d="M354.082 489.747L354.397 541.102C354.38 547.175 353.95 553.566 354.413 559.61C354.52 561 354.933 561.89 355.659 563.063L354.636 563.767C354.863 565.678 356.53 567.344 358.013 568.452C360.349 570.197 363.069 570.441 365.875 570.787C371.09 571.429 376.33 571.485 381.576 571.559C385.04 571.607 388.803 571.194 392.022 572.419L393.84 572.701C370.921 576.174 348.917 583.548 328.069 593.611C323.28 595.922 318.521 597.948 314.07 600.881L299.433 588.272L299.927 561.827L300.22 565.75C301.282 565.512 302.589 562.254 303.145 561.174C315.514 537.126 331.69 517.312 353.781 501.59L354.082 489.747Z"/>
	<defs>
		<linearGradient id="gradient_8" gradientUnits="userSpaceOnUse" x1="373.28839" y1="569.3772" x2="408.18753" y2="442.39105">
			<stop offset="0" stop-color="#45377D"/>
			<stop offset="1" stop-color="#654C9A"/>
		</linearGradient>
	</defs>
	<path fill="url(#gradient_8)" d="M354.082 489.747L354.173 463.62C354.196 460.06 353.699 455.209 354.696 451.848C355.467 449.247 358.536 446.184 360.971 445.067C364.279 443.55 416.328 443.406 420.617 445.107C422.946 446.031 425.13 447.962 426.081 450.303L426.589 452L426.728 452.519C427.619 456.166 427.17 461.05 427.17 464.815L427.138 488.25L427.206 538.955L427.201 560C427.143 561.339 426.875 562.344 426.128 563.472C424.819 565.448 422.823 566.893 420.733 567.937L389.372 567.835L362.636 568.03C359.574 566.846 357.923 565.354 355.659 563.063C354.933 561.89 354.52 561 354.413 559.61C353.95 553.566 354.38 547.175 354.397 541.102L354.082 489.747Z"/>
	<path fill="#916DD5" d="M367.552 453.714L386.4 454.033L371.523 467.171L362.548 475.582C362.511 469.83 361.211 460.821 364.25 455.892C365.265 454.246 365.8 454.175 367.552 453.714Z"/>
	<defs>
		<linearGradient id="gradient_9" gradientUnits="userSpaceOnUse" x1="387.64197" y1="569.22424" x2="396.47363" y2="490.9581">
			<stop offset="0" stop-color="#5A5188"/>
			<stop offset="1" stop-color="#9187B2"/>
		</linearGradient>
	</defs>
	<path fill="url(#gradient_9)" d="M362.636 568.03L362.906 541.849L420.014 491.564L420.11 533.13L381.803 567.244L389.091 567.417L389.372 567.835L362.636 568.03Z"/>
</svg>
